# xmcd
#
# Track frame offsets:
# 150
# 11338
# 35008
# 60287
# 78667
# 91916
# 107728
# 129790
# 153497
# 176578
# 191069
# 215799
# 231396
# 248211
# 259727
#
# Disc length: 3800 seconds
#
#
# Revision: 0
# Processed by: cddbd v1.5.1PL0 Copyright (c) Steve Scherf et al.
# Submitted via: FreeRIP 2.53 
#
DISCID=c70ed60f
DTITLE=Grasshoppah - Whoa Mama!
DYEAR=2005
DGENRE=Bluegrass
TTITLE0=River Song
TTITLE1=Where In The World
TTITLE2=Boneyard Vamp
TTITLE3=Baba Ganoush
TTITLE4=Codependent
TTITLE5=We Carry On
TTITLE6=June Bug/Warm Rain
TTITLE7=Little Foxes
TTITLE8=Willow
TTITLE9=Don't Kill Me Martha
TTITLE10=Isaac's Tune
TTITLE11=Tonight's The Night
TTITLE12=Purple Mountain
TTITLE13=Carbondale
TTITLE14=Rio
EXTD=
EXTT0=
EXTT1=
EXTT2=
EXTT3=
EXTT4=
EXTT5=
EXTT6=
EXTT7=
EXTT8=
EXTT9=
EXTT10=
EXTT11=
EXTT12=
EXTT13=
EXTT14=
PLAYORDER=
